HIERARCHY
ROOT Hips
{
  OFFSET 0 0 0
  CHANNELS 6 Xposition Yposition Zposition Zrotation Xrotation Yrotation
  JOINT Spine
  {
    OFFSET 0 10.0588 -0.358158
    CHANNELS 3 Zrotation Xrotation Yrotation
    JOINT Spine1
    {
      OFFSET 0 11.7428 0
      CHANNELS 3 Zrotation Xrotation Yrotation
      JOINT Spine2
      {
        OFFSET 0 13.4203 0
        CHANNELS 3 Zrotation Xrotation Yrotation
        JOINT Neck
        {
          OFFSET 0 15.0978 0
          CHANNELS 3 Zrotation Xrotation Yrotation
          JOINT Head
          {
            OFFSET 0 8.08556 2.6878
            CHANNELS 3 Zrotation Xrotation Yrotation
            End Site
            {
              OFFSET 0 21.4992 7.1467
            }
          }
        }
        JOINT LeftShoulder
        {
          OFFSET 5.94912 13.2477 -0.0644506
          CHANNELS 3 Zrotation Xrotation Yrotation
          JOINT LeftArm
          {
            OFFSET 0 12.4722 0
            CHANNELS 3 Zrotation Xrotation Yrotation
            JOINT LeftForeArm
            {
              OFFSET 0 23.8149 -1.70767e-05
              CHANNELS 3 Zrotation Xrotation Yrotation
              JOINT LeftHand
              {
                OFFSET 0 24.5563 1.04203e-05
                CHANNELS 3 Zrotation Xrotation Yrotation
                End Site
                {
                  OFFSET -1.85578 17.3552 -0.291151
                }
              }
            }
          }
        }
        JOINT RightShoulder
        {
          OFFSET -5.94912 13.2478 -0.0672943
          CHANNELS 3 Zrotation Xrotation Yrotation
          JOINT RightArm
          {
            OFFSET 0 12.4722 1.01534e-05
            CHANNELS 3 Zrotation Xrotation Yrotation
            JOINT RightForeArm
            {
              OFFSET 0 23.8199 0
              CHANNELS 3 Zrotation Xrotation Yrotation
              JOINT RightHand
              {
                OFFSET 0 24.5599 -1.20798e-05
                CHANNELS 3 Zrotation Xrotation Yrotation
                End Site
                {
                  OFFSET 1.86614 17.4983 -0.349753
                }
              }
            }
          }
        }
      }
    }
  }
  JOINT LeftUpLeg
  {
    OFFSET 9.39209 -5.57221 -0.0932092
    CHANNELS 3 Zrotation Xrotation Yrotation
    JOINT LeftLeg
    {
      OFFSET -8.56873e-05 42.3183 -0.00043952
      CHANNELS 3 Zrotation Xrotation Yrotation
      JOINT LeftFoot
      {
        OFFSET 0 39.0997 0
        CHANNELS 3 Zrotation Xrotation Yrotation
        JOINT LeftToe
        {
          OFFSET 0 14.7062 0
          CHANNELS 3 Zrotation Xrotation Yrotation
          End Site
          {
            OFFSET 0 5.95384 0
          }
        }
      }
    }
  }
  JOINT RightUpLeg
  {
    OFFSET -9.3921 -5.57221 -0.0152273
    CHANNELS 3 Zrotation Xrotation Yrotation
    JOINT RightLeg
    {
      OFFSET -0.00139831 42.3259 0.00678703
      CHANNELS 3 Zrotation Xrotation Yrotation
      JOINT RightFoot
      {
        OFFSET 0 39.0934 0
        CHANNELS 3 Zrotation Xrotation Yrotation
        JOINT RightToe
        {
          OFFSET 0 14.5999 0
          CHANNELS 3 Zrotation Xrotation Yrotation
          End Site
          {
            OFFSET 0 6.0364 0
          }
        }
      }
    }
  }
}
MOTION
Frames:	6
Frame Time:	0.0416667
-0.746771 103.853 -0.0490224 2.1419 -5.44023 -15.7345 -1.0542 4.99374 -0.861186 -0.156237 2.12419 -0.545659 -0.150715 2.12832 -0.535252 1.21869 2.03326 2.42193 -4.6586 -4.84603 13.9035 -116.214 0.816702 93.6026 5.25794 48.7431 5.68025 21.7114 0.372346 -0.514713 -2.96384 4.90428 17.5301 119.734 7.84944 -96.6959 -2.80554 53.3013 24.9855 -15.6454 0.259998 0.524567 3.70384 7.22824 -31.2308 -176.2 5.39031 -8.14553 0.185287 -18.3921 -1.17153 10.387 65.6957 -15.0342 0.154186 33.2966 -0.280864 178.666 -0.737938 10.8416 0.974792 -23.8158 10.0937 -43.8567 75.1723 44.4477 0.0329817 33.5225 -0.0597201 
-0.804253 103.789 0.137439 2.19 -5.49037 -16.6859 -1.17517 5.13205 -0.975578 -0.200822 2.074 -0.617093 -0.194101 2.07858 -0.60705 1.23189 2.12625 2.46314 -4.62185 -4.79917 14.2349 -116.031 0.919648 93.6287 5.43795 48.9686 5.72401 20.9712 0.360054 -0.510435 -2.58364 3.97175 17.0403 119.737 7.83233 -96.6898 -2.48435 53.3536 24.4852 -15.5479 0.258502 0.524051 2.93217 7.1692 -31.1534 -176.248 5.21079 -8.32933 0.144584 -18.5438 -1.80771 10.2992 65.689 -15.0832 0.154186 33.2966 -0.280864 178.302 -0.598922 11.0375 1.03764 -24.3408 10.1275 -41.8893 76.1588 42.2169 0.0329817 33.5225 -0.0597201 
-0.85385 103.684 0.35807 2.13816 -5.53401 -17.8372 -1.23968 5.2906 -1.11821 -0.242815 2.06216 -0.701211 -0.234705 2.06718 -0.691623 1.21429 2.17393 2.5217 -4.56307 -4.77332 14.5983 -115.765 1.03308 93.6508 5.29348 49.1275 6.22783 21.56 0.369724 -0.513837 -3.35255 2.88303 16.1933 119.769 7.80368 -96.6818 -1.19795 53.4181 23.0095 -16.6714 0.276565 0.530028 2.52982 7.40586 -30.5683 -176.159 5.18159 -8.48177 0.0924156 -19.1889 -2.75747 10.1642 66.0221 -15.1981 0.154186 33.2966 -0.280864 177.957 -0.406281 11.1666 1.11351 -25.0445 10.1716 -39.3967 77.3008 39.4445 0.0329817 33.5225 -0.0597201 
-0.881479 103.566 0.630404 2.02207 -5.55145 -18.9736 -1.2474 5.45803 -1.32593 -0.288741 2.12261 -0.834343 -0.27868 2.12823 -0.82516 1.17176 2.14009 2.60462 -4.56775 -4.8383 15.0757 -115.39 1.20281 93.6838 5.82693 48.9682 6.66846 22.5643 0.386207 -0.519786 -5.0115 2.41998 15.0597 119.809 7.76317 -96.6698 0.464745 53.0894 20.8936 -19.1387 0.315424 0.544266 2.52707 8.45863 -29.3673 -176.033 5.26892 -8.4906 0.0459487 -20.1751 -3.39791 10.2542 66.8532 -15.4878 0.154186 33.2966 -0.280864 177.718 -0.315094 11.1842 1.13752 -25.6567 9.7104 -38.7503 78.023 38.6652 0.0329817 33.5225 -0.0597201 
-0.846891 103.471 0.917118 1.89434 -5.47902 -19.9277 -1.22687 5.64376 -1.6002 -0.337967 2.21618 -1.00958 -0.32535 2.22258 -1.00076 1.13378 2.07542 2.70914 -4.69462 -5.04921 15.7073 -114.85 1.48779 93.7491 9.1136 48.1584 5.60778 22.5355 0.38597 -0.519684 -5.68819 2.76438 13.639 119.783 7.73161 -96.6546 1.5356 51.8125 18.8614 -22.4225 0.366894 0.565905 2.57452 10.1554 -27.5587 -176.153 5.53485 -8.36507 0.112324 -21.3146 -2.34701 10.9877 67.9725 -16.0256 0.154186 33.2966 -0.280864 177.565 -0.313707 11.1472 1.09873 -26.0224 8.77327 -39.6769 78.3421 39.569 0.0329817 33.5225 -0.0597201 
-0.682926 103.39 1.1801 1.7158 -5.25689 -20.7876 -1.15655 5.84946 -1.86421 -0.386769 2.26231 -1.17359 -0.371399 2.26931 -1.16552 1.12289 2.08903 2.81343 -4.86861 -5.32052 16.4502 -114.161 1.86335 93.8364 14.9274 46.2947 3.45853 21.4307 0.367648 -0.513091 -4.37374 2.9088 11.9092 119.682 7.81098 -96.6764 1.38212 49.0254 17.6125 -26.5324 0.429357 0.59723 2.40632 11.2043 -24.7986 -176.791 6.74389 -8.3807 0.287276 -23.7143 0.919455 15.3823 69.6974 -18.1864 0.154186 33.2966 -0.280864 177.454 -0.255219 11.1818 1.0604 -26.2362 7.81394 -40.4271 78.5407 40.3508 0.0329817 33.5225 -0.0597201 
